<svg xmlns="http://www.w3.org/2000/svg" width="24.666" height="24.521" viewBox="0 0 24.666 24.521">
  <g id="slack" transform="translate(0 -0.477)">
    <path id="Path_2" data-name="Path 2" d="M3.563,55.842a2.039,2.039,0,0,1-1.987-1.4q-.016-.048-.03-.1a2.137,2.137,0,0,1,1.383-2.61l17.462-5.85a2.367,2.367,0,0,1,.638-.093,2.093,2.093,0,0,1,2.04,1.427l.026.084a2.1,2.1,0,0,1-1.457,2.488L4.273,55.721a2.26,2.26,0,0,1-.709.121Z" transform="translate(-1.464 -42.385)" fill="#fff"/>
    <path id="Path_3" data-name="Path 3" d="M20.895,106.7a2.037,2.037,0,0,1-1.994-1.378q-.016-.048-.03-.1a2.152,2.152,0,0,1,1.381-2.636l17.462-5.9a2.248,2.248,0,0,1,.693-.116,2.11,2.11,0,0,1,2.035,1.414l.027.089a2.21,2.21,0,0,1-.266,1.776,2.928,2.928,0,0,1-1.038.731l-17.529,5.993a2.4,2.4,0,0,1-.742.127Z" transform="translate(-15.885 -84.655)" fill="#fff"/>
    <path id="Path_4" data-name="Path 4" d="M78.424,49.9a2.144,2.144,0,0,1-2.053-1.461L70.544,31.127l-.029-.1a2.147,2.147,0,0,1,4.1-1.272l5.827,17.309.017.056A2.145,2.145,0,0,1,78.424,49.9Z" transform="translate(-58.878 -27.816)" fill="#fff"/>
    <path id="Path_5" data-name="Path 5" d="M26.713,67.313a2.145,2.145,0,0,1-2.054-1.462L18.833,48.54a2.144,2.144,0,0,1,1.349-2.719,2.171,2.171,0,0,1,.668-.112A2.144,2.144,0,0,1,22.9,47.171l5.826,17.311a2.146,2.146,0,0,1-2.017,2.831h0Z" transform="translate(-15.829 -42.315)" fill="#fff"/>
    <path id="Path_6" data-name="Path 6" d="M94.372,107.486l4.064-1.389-1.328-3.945-4.068,1.375Z" transform="translate(-77.699 -89.302)" fill="#fff"/>
    <path id="Path_7" data-name="Path 7" d="M42.692,124.991l4.063-1.389-1.338-3.975L41.35,121Z" transform="translate(-34.669 -103.85)" fill="#fff"/>
    <path id="Path_8" data-name="Path 8" d="M77.165,56.428l4.064-1.388-1.313-3.9-4.071,1.364Z" transform="translate(-63.385 -46.837)" fill="#fff"/>
    <path id="Path_9" data-name="Path 9" d="M25.446,73.811l4.064-1.388-1.329-3.949L24.11,69.839Z" transform="translate(-20.316 -61.267)" fill="#fff"/>
  </g>
</svg>
